<?xml version="1.0" standalone="no"?><!DOCTYPE svg PUBLIC "-//W3C//DTD SVG 1.1//EN" "http://www.w3.org/Graphics/SVG/1.1/DTD/svg11.dtd"><svg t="1535847834453" class="icon" style="" viewBox="0 0 1024 1024" version="1.1" xmlns="http://www.w3.org/2000/svg" p-id="2634" xmlns:xlink="http://www.w3.org/1999/xlink" width="200" height="200"><defs><style type="text/css"></style></defs><path d="M573.808548 684.820795c6.3984 16.187953 25.657586 24.505874 43.189203 18.619345s26.489378-23.738065 20.090977-39.862034L383.712072 84.458885C378.593352 71.406148 365.028743 63.92002 350.76031 64.431892 336.555861 63.92002 322.991252 71.406148 317.872532 84.458885l-253.376656 579.11922c-6.3984 16.123969 2.623344 33.975506 20.090977 39.862034s36.790802-2.431392 43.189203-18.619345l75.373157-172.180955 295.286178 0L573.808548 684.820795zM231.110222 448.655836l119.650087-273.467633 119.650087 273.467633L231.110222 448.655836zM951.442139 583.790052c-12.092977-12.092977-31.80005-12.092977-43.957011 0l-365.220695 365.220695-171.477131-171.477131c-11.965009-11.901025-31.16021-11.901025-43.061235 0s-11.901025 31.16021 0 43.061235l186.64134 186.64134c1.471632 2.87928 3.007248 5.75856 5.43864 8.125969 12.092977 12.092977 31.80005 12.092977 43.957011 0l387.67908-387.67908C963.5991 615.526118 963.5991 595.883029 951.442139 583.790052z" p-id="2635" fill="#1afa29"></path></svg>